<svg width="22" height="21" viewBox="0 0 22 21" fill="none" xmlns="http://www.w3.org/2000/svg">
<path d="M18 1.5H4C2.586 1.5 1.879 1.5 1.44 1.912C1.001 2.324 1 2.988 1 4.315V5.005C1 6.042 1 6.561 1.26 6.991C1.52 7.421 1.993 7.689 2.942 8.223L5.855 9.863C6.491 10.221 6.81 10.4 7.038 10.598C7.512 11.009 7.804 11.493 7.936 12.088C8 12.372 8 12.706 8 13.373V16.043C8 16.952 8 17.407 8.252 17.761C8.504 18.116 8.952 18.291 9.846 18.641C11.725 19.375 12.664 19.742 13.332 19.324C14 18.906 14 17.952 14 16.042V13.372C14 12.706 14 12.372 14.064 12.087C14.1896 11.5042 14.5059 10.9798 14.963 10.597C15.19 10.4 15.509 10.221 16.145 9.862L19.058 8.222C20.006 7.689 20.481 7.422 20.74 6.992C21 6.562 21 6.042 21 5.004V4.314C21 2.988 21 2.324 20.56 1.912C20.122 1.5 19.415 1.5 18 1.5Z" stroke="#5C2FC2" stroke-width="1.5"/>
</svg>
