<svg width="173" height="72" viewBox="0 0 173 72" fill="none" xmlns="http://www.w3.org/2000/svg">
<path d="M20.0104 0.659319V46.3721H10.9964V0.659319H20.0104ZM31.2236 0.659319V8.28858H0V0.659319H31.2236Z" fill="#2E2A39"/>
<path d="M62.3543 38.7742V46.3721H42.7466V38.7742H62.3543ZM45.5654 0.659319V46.3721H36.4895V0.659319H45.5654ZM59.7214 19.183V26.5611H42.7466V19.183H59.7214ZM62.2924 0.659319V8.28858H42.7466V0.659319H62.2924Z" fill="#2E2A39"/>
<path d="M89.1484 31.145H98.1624C98.0385 34.5776 97.357 37.4765 96.118 39.8417C94.879 42.1859 93.1133 43.965 90.8211 45.179C88.5496 46.393 85.803 47 82.5816 47C80.0828 47 77.8629 46.5814 75.9218 45.7442C73.9806 44.886 72.3286 43.6301 70.9656 41.9766C69.6027 40.3231 68.5702 38.2823 67.868 35.8544C67.1866 33.4055 66.8458 30.5903 66.8458 27.4088V19.654C66.8458 16.4725 67.2072 13.6573 67.93 11.2084C68.6734 8.75952 69.7266 6.70831 71.0895 5.05478C72.4731 3.38032 74.1355 2.12447 76.0766 1.28724C78.0384 0.42908 80.2481 0 82.7055 0C85.9889 0 88.7354 0.627923 90.945 1.88377C93.1546 3.13961 94.8583 4.97105 96.056 7.37809C97.2744 9.76419 98.0075 12.684 98.2553 16.1376H89.1794C89.1381 13.9608 88.9006 12.255 88.467 11.02C88.054 9.7642 87.3931 8.8851 86.4845 8.38277C85.5759 7.8595 84.3162 7.59786 82.7055 7.59786C81.5077 7.59786 80.4752 7.81764 79.6079 8.25718C78.7406 8.6758 78.0281 9.35605 77.4706 10.2979C76.913 11.2398 76.5 12.4747 76.2315 14.0027C75.9837 15.5306 75.8598 17.3935 75.8598 19.5912V27.4088C75.8598 29.5647 75.9734 31.4066 76.2005 32.9345C76.4277 34.4416 76.7891 35.6765 77.2847 36.6393C77.7803 37.6021 78.4515 38.3033 79.2981 38.7428C80.1654 39.1824 81.2599 39.4021 82.5816 39.4021C84.1097 39.4021 85.3384 39.1719 86.2677 38.7114C87.2176 38.2509 87.9197 37.4242 88.374 36.2311C88.8284 35.0381 89.0865 33.3427 89.1484 31.145Z" fill="#2E2A39"/>
<path d="M128.828 19.183V26.7809H110.336V19.183H128.828ZM112.907 0.659319V46.3721H103.831V0.659319H112.907ZM135.395 0.659319V46.3721H126.412V0.659319H135.395Z" fill="#5C2FC2"/>
<path d="M142.83 0.659319H157.295C160.31 0.659319 162.881 1.18259 165.008 2.22913C167.135 3.27566 168.767 4.82454 169.902 6.87575C171.038 8.92696 171.606 11.4596 171.606 14.4736C171.606 16.9434 171.276 19.0574 170.615 20.8156C169.954 22.5529 169.014 24.0076 167.796 25.1797C166.578 26.3309 165.122 27.2518 163.428 27.9426L160.672 29.6065H148.932L148.901 21.9773H157.047C158.286 21.9773 159.309 21.7052 160.114 21.161C160.94 20.5959 161.549 19.811 161.942 18.8063C162.355 17.7807 162.561 16.5876 162.561 15.2271C162.561 13.7829 162.375 12.548 162.004 11.5224C161.653 10.4758 161.085 9.68047 160.3 9.13627C159.536 8.57114 158.534 8.28858 157.295 8.28858H151.905V46.3721H142.83V0.659319ZM163.305 46.3721L155.034 25.996L164.544 25.9646L173 45.9325V46.3721H163.305Z" fill="#5C2FC2"/>
<path d="M16.971 71.7495V68.2431L16.8228 67.5856V61.6059C16.8228 60.3327 16.467 59.3517 15.7553 58.663C15.0635 57.9533 14.0158 57.5985 12.6123 57.5985C11.6832 57.5985 10.7739 57.7655 9.88434 58.0994C8.9948 58.4125 8.24363 58.8404 7.63083 59.3831L6.44477 57.1289C7.25524 56.4401 8.22386 55.9184 9.35062 55.5635C10.4971 55.1878 11.6931 55 12.9384 55C15.0931 55 16.7536 55.5531 17.9199 56.6593C19.0862 57.7655 19.6693 59.4561 19.6693 61.7311V71.7495H16.971ZM11.8117 71.9374C10.6454 71.9374 9.61748 71.7287 8.72793 71.3112C7.85816 70.8938 7.18606 70.3198 6.71164 69.5893C6.23721 68.8379 6 67.9926 6 67.0534C6 66.1559 6.19768 65.3419 6.59303 64.6114C7.00815 63.8809 7.67037 63.2965 8.57968 62.8582C9.50876 62.4199 10.7541 62.2007 12.3158 62.2007H17.2972V64.361H12.4344C11.0111 64.361 10.0524 64.6114 9.55818 65.1123C9.06398 65.6133 8.81689 66.2185 8.81689 66.9282C8.81689 67.7422 9.12329 68.3996 9.73608 68.9006C10.3489 69.3806 11.1989 69.6206 12.2861 69.6206C13.3536 69.6206 14.2826 69.3702 15.0733 68.8692C15.8838 68.3683 16.467 67.6378 16.8228 66.6777L17.3862 68.744C17.0106 69.725 16.3484 70.5077 15.3995 71.0921C14.4507 71.6556 13.2547 71.9374 11.8117 71.9374Z" fill="black" fill-opacity="0.5"/>
<path d="M24.7951 71.7495V55.1565H27.6416V62.2007H36.5964V55.1565H39.4429V71.7495H36.5964V64.7993H27.6416V71.7495H24.7951Z" fill="black" fill-opacity="0.5"/>
<path d="M54.6145 71.7495V68.2431L54.4662 67.5856V61.6059C54.4662 60.3327 54.1104 59.3517 53.3988 58.663C52.7069 57.9533 51.6592 57.5985 50.2557 57.5985C49.3267 57.5985 48.4173 57.7655 47.5278 58.0994C46.6383 58.4125 45.8871 58.8404 45.2743 59.3831L44.0882 57.1289C44.8987 56.4401 45.8673 55.9184 46.9941 55.5635C48.1406 55.1878 49.3365 55 50.5819 55C52.7366 55 54.397 55.5531 55.5633 56.6593C56.7296 57.7655 57.3128 59.4561 57.3128 61.7311V71.7495H54.6145ZM49.4551 71.9374C48.2888 71.9374 47.2609 71.7287 46.3714 71.3112C45.5016 70.8938 44.8295 70.3198 44.3551 69.5893C43.8807 68.8379 43.6435 67.9926 43.6435 67.0534C43.6435 66.1559 43.8411 65.3419 44.2365 64.6114C44.6516 63.8809 45.3138 63.2965 46.2231 62.8582C47.1522 62.4199 48.3976 62.2007 49.9592 62.2007H54.9407V64.361H50.0778C48.6545 64.361 47.6958 64.6114 47.2016 65.1123C46.7074 65.6133 46.4603 66.2185 46.4603 66.9282C46.4603 67.7422 46.7667 68.3996 47.3795 68.9006C47.9923 69.3806 48.8423 69.6206 49.9296 69.6206C50.997 69.6206 51.9261 69.3702 52.7168 68.8692C53.5273 68.3683 54.1104 67.6378 54.4662 66.6777L55.0296 68.744C54.654 69.725 53.9918 70.5077 53.043 71.0921C52.0941 71.6556 50.8982 71.9374 49.4551 71.9374Z" fill="black" fill-opacity="0.5"/>
<path d="M59.8292 71.7182L60.0071 69.1823C60.1455 69.2032 60.274 69.2241 60.3926 69.2449C60.5112 69.2658 60.6199 69.2762 60.7188 69.2762C61.3513 69.2762 61.8455 69.0467 62.2013 68.5875C62.5769 68.1283 62.8537 67.523 63.0316 66.7716C63.2095 65.9994 63.338 65.1332 63.417 64.1731C63.4961 63.213 63.5554 62.2529 63.5949 61.2928L63.8618 55.1565H75.93V71.7495H73.0834V56.9098L73.7654 57.7864H65.7002L66.3525 56.8785L66.145 61.4807C66.0857 62.9417 65.9769 64.3088 65.8188 65.582C65.6607 66.8551 65.4136 67.9718 65.0775 68.9319C64.7612 69.892 64.3165 70.6433 63.7432 71.186C63.1897 71.7287 62.4682 72 61.5786 72C61.3217 72 61.0449 71.9687 60.7484 71.9061C60.4717 71.8643 60.1653 71.8017 59.8292 71.7182Z" fill="black" fill-opacity="0.5"/>
<path d="M81.434 71.7495V55.1565H84.2805V67.2412L93.9173 55.1565H96.4969V71.7495H93.6504V59.6648L84.0433 71.7495H81.434Z" fill="black" fill-opacity="0.5"/>
<path d="M105.135 71.7495V57.0037L105.847 57.7864H99.3831V55.1565H113.734V57.7864H107.3L107.982 57.0037V71.7495H105.135Z" fill="black" fill-opacity="0.5"/>
<path d="M116.645 71.7495V55.1565H119.492V67.2412L129.128 55.1565H131.708V71.7495H128.862V59.6648L119.254 71.7495H116.645Z" fill="black" fill-opacity="0.5"/>
<path d="M148.619 71.7495L142.541 63.6722L144.883 62.1694L151.97 71.7495H148.619ZM137.233 71.7495V55.1565H140.08V71.7495H137.233ZM139.22 64.7366V62.1694H144.409V64.7366H139.22ZM145.12 63.7974L142.481 63.4217L148.501 55.1565H151.555L145.12 63.7974Z" fill="black" fill-opacity="0.5"/>
<path d="M164.302 71.7495V68.2431L164.153 67.5856V61.6059C164.153 60.3327 163.798 59.3517 163.086 58.663C162.394 57.9533 161.346 57.5985 159.943 57.5985C159.014 57.5985 158.105 57.7655 157.215 58.0994C156.325 58.4125 155.574 58.8404 154.962 59.3831L153.775 57.1289C154.586 56.4401 155.555 55.9184 156.681 55.5635C157.828 55.1878 159.024 55 160.269 55C162.424 55 164.084 55.5531 165.251 56.6593C166.417 57.7655 167 59.4561 167 61.7311V71.7495H164.302ZM159.142 71.9374C157.976 71.9374 156.948 71.7287 156.059 71.3112C155.189 70.8938 154.517 70.3198 154.042 69.5893C153.568 68.8379 153.331 67.9926 153.331 67.0534C153.331 66.1559 153.528 65.3419 153.924 64.6114C154.339 63.8809 155.001 63.2965 155.91 62.8582C156.839 62.4199 158.085 62.2007 159.646 62.2007H164.628V64.361H159.765C158.342 64.361 157.383 64.6114 156.889 65.1123C156.395 65.6133 156.148 66.2185 156.148 66.9282C156.148 67.7422 156.454 68.3996 157.067 68.9006C157.68 69.3806 158.53 69.6206 159.617 69.6206C160.684 69.6206 161.613 69.3702 162.404 68.8692C163.214 68.3683 163.798 67.6378 164.153 66.6777L164.717 68.744C164.341 69.725 163.679 70.5077 162.73 71.0921C161.781 71.6556 160.585 71.9374 159.142 71.9374Z" fill="black" fill-opacity="0.5"/>
</svg>
